<svg width="384" height="250" viewBox="0 0 384 250" fill="none" xmlns="http://www.w3.org/2000/svg">
<g clip-path="url(#clip0_70_499)">
<path d="M192 184C241.222 184 281.125 144.097 281.125 94.875C281.125 45.6526 241.222 5.75 192 5.75C142.778 5.75 102.875 45.6526 102.875 94.875C102.875 144.097 142.778 184 192 184Z" fill="#E7EFFF"/>
<path d="M278.25 33.6375V54.625C278.25 55.3875 277.947 56.1188 277.408 56.6579C276.869 57.1971 276.137 57.5 275.375 57.5H108.625C107.863 57.5 107.131 57.1971 106.592 56.6579C106.053 56.1188 105.75 55.3875 105.75 54.625V33.6375C105.749 33.0484 105.929 32.4732 106.266 31.9898C106.603 31.5065 107.08 31.1383 107.633 30.935L192 0L276.367 30.935C276.92 31.1383 277.397 31.5065 277.734 31.9898C278.071 32.4732 278.251 33.0484 278.25 33.6375ZM244.699 166.75C229.414 177.957 210.954 183.999 192 183.999C173.046 183.999 154.586 177.957 139.301 166.75H244.699Z" fill="#4E6AFF"/>
<path d="M206.375 69H177.625C176.863 69 176.131 68.6971 175.592 68.1579C175.053 67.6188 174.75 66.8875 174.75 66.125V57.5H209.25V66.125C209.25 66.8875 208.947 67.6188 208.408 68.1579C207.869 68.6971 207.137 69 206.375 69ZM209.25 166.75H174.75V158.125C174.75 157.363 175.053 156.631 175.592 156.092C176.131 155.553 176.863 155.25 177.625 155.25H206.375C207.137 155.25 207.869 155.553 208.408 156.092C208.947 156.631 209.25 157.363 209.25 158.125V166.75Z" fill="#323FD4"/>
<path d="M203.5 69H180.5V155.25H203.5V69Z" fill="#4E6AFF"/>
<path d="M146 69H117.25C116.488 69 115.756 68.6971 115.217 68.1579C114.678 67.6188 114.375 66.8875 114.375 66.125V57.5H148.875V66.125C148.875 66.8875 148.572 67.6188 148.033 68.1579C147.494 68.6971 146.762 69 146 69ZM148.875 158.125V166.75H139.301C134.654 163.343 130.35 159.491 126.45 155.25H146C146.762 155.25 147.494 155.553 148.033 156.092C148.572 156.631 148.875 157.363 148.875 158.125Z" fill="#323FD4"/>
<path d="M143.125 69V155.25H126.45C124.193 152.812 122.082 150.244 120.125 147.559V69H143.125Z" fill="#4E6AFF"/>
<path d="M266.75 69H238C237.238 69 236.506 68.6971 235.967 68.1579C235.428 67.6188 235.125 66.8875 235.125 66.125V57.5H269.625V66.125C269.625 66.8875 269.322 67.6188 268.783 68.1579C268.244 68.6971 267.512 69 266.75 69ZM257.55 155.25C253.65 159.491 249.346 163.343 244.699 166.75H235.125V158.125C235.125 157.363 235.428 156.631 235.967 156.092C236.506 155.553 237.238 155.25 238 155.25H257.55Z" fill="#323FD4"/>
<path d="M263.875 69V147.559C261.918 150.244 259.807 152.812 257.55 155.25H240.875V69H263.875Z" fill="#4E6AFF"/>
<path d="M192 46C199.939 46 206.375 39.5641 206.375 31.625C206.375 23.6859 199.939 17.25 192 17.25C184.061 17.25 177.625 23.6859 177.625 31.625C177.625 39.5641 184.061 46 192 46Z" fill="#8FA2FF"/>
<path d="M104.312 104.176C106.694 104.176 108.625 102.245 108.625 99.8632C108.625 97.4814 106.694 95.5507 104.312 95.5507C101.931 95.5507 100 97.4814 100 99.8632C100 102.245 101.931 104.176 104.312 104.176Z" fill="#FFA100"/>
<path d="M273.938 97.75C276.319 97.75 278.25 95.8192 278.25 93.4375C278.25 91.0558 276.319 89.125 273.938 89.125C271.556 89.125 269.625 91.0558 269.625 93.4375C269.625 95.8192 271.556 97.75 273.938 97.75Z" fill="#FFA100"/>
<path d="M265.312 17.25C267.694 17.25 269.625 15.3192 269.625 12.9375C269.625 10.5558 267.694 8.625 265.312 8.625C262.931 8.625 261 10.5558 261 12.9375C261 15.3192 262.931 17.25 265.312 17.25Z" fill="#00C99F"/>
<path d="M133.062 178.25C135.444 178.25 137.375 176.319 137.375 173.938C137.375 171.556 135.444 169.625 133.062 169.625C130.681 169.625 128.75 171.556 128.75 173.938C128.75 176.319 130.681 178.25 133.062 178.25Z" fill="#00C99F"/>
<rect x="-1.39703" y="197" width="140" height="42" rx="21" transform="rotate(7.66635 -1.39703 197)" fill="#00AC47"/>
<rect x="-1.39703" y="197" width="140" height="42" rx="21" transform="rotate(7.66635 -1.39703 197)" stroke="white" stroke-width="5"/>
<path d="M11.6192 225.996L5.91069 225.227L7.51954 213.275L13.014 214.015C15.3509 214.329 16.6305 215.482 16.3592 217.498C16.1719 218.889 15.2597 219.729 13.6943 219.755L13.6751 219.897C15.4635 220.374 16.2326 221.676 16.0213 223.246C15.7476 225.28 14.1345 226.334 11.6192 225.996ZM9.21324 215.265L8.77861 218.494L12.168 218.95C13.613 219.144 14.2367 218.829 14.4 217.616C14.5657 216.385 14.1012 215.923 12.6562 215.728L9.21324 215.265ZM8.5625 220.099L8.07023 223.756L11.7986 224.258C13.2436 224.452 13.9232 224.126 14.1129 222.717C14.305 221.29 13.7358 220.795 12.2909 220.601L8.5625 220.099ZM19.5132 227.24C17.9256 227.026 16.8051 226.04 17.014 224.488C17.2109 223.025 18.3845 222.402 20.3115 222.389L23.4779 222.343L23.5428 221.861C23.7205 220.541 23.1668 220.067 21.7753 219.88C20.366 219.69 19.753 220.062 19.5945 221.239L19.5585 221.507L17.7032 221.257L17.7272 221.078C17.9938 219.098 19.7379 217.88 22.1105 218.199C24.5901 218.533 25.6371 220.2 25.3466 222.358L24.6214 227.746L22.8375 227.506L23.0248 226.114L22.9356 226.102C22.3054 226.871 21.1901 227.465 19.5132 227.24ZM18.9064 224.597C18.8127 225.293 19.2203 225.638 20.3441 225.79C21.5929 225.958 23.0337 225.643 23.2738 223.859L23.2954 223.699L20.4192 223.747C19.3832 223.753 18.9952 223.937 18.9064 224.597ZM28.3928 228.253L26.4662 227.994L27.6597 219.128L29.4257 219.366L29.2024 221.025L29.2738 221.034C29.8113 220.144 30.8769 219.379 32.6073 219.612C34.9085 219.922 35.7463 221.524 35.4749 223.54L34.7257 229.106L32.7991 228.847L33.4907 223.709C33.7044 222.121 33.2937 221.394 31.6704 221.175C30.1005 220.964 29.3053 221.475 29.082 223.134L28.3928 228.253ZM38.497 229.614L36.5704 229.354L38.1793 217.402L40.1059 217.661L39.2174 224.262L40.9656 224.497L43.8113 221.302L46.0769 221.607L42.4264 225.384L44.8299 230.466L42.5822 230.163L40.7506 226.23L38.9845 225.992L38.497 229.614ZM53.0157 231.568C51.0356 231.301 50.0993 230.431 50.3683 228.433L50.9782 223.901L49.4976 223.702L49.7137 222.097L51.23 222.301L51.9357 220.162L53.4163 220.361L53.1209 222.555L55.7968 222.915L55.5807 224.521L52.9048 224.161L52.3069 228.603C52.182 229.53 52.5529 229.744 53.7481 229.905L54.8363 230.051L54.625 231.621C54.2384 231.66 53.6222 231.649 53.0157 231.568ZM57.8518 232.219L55.9251 231.959L57.1258 223.04L58.8919 223.278L58.7022 224.687L58.7913 224.699C59.2586 223.926 60.1752 223.323 61.4775 223.499C63.3328 223.748 63.8638 225.2 63.6405 226.859L63.5613 227.448L61.6346 227.188L61.6827 226.832C61.8412 225.654 61.5598 225.181 60.436 225.029C59.2764 224.873 58.7883 225.262 58.6298 226.439L57.8518 232.219ZM66.2538 233.531C64.6661 233.318 63.5457 232.331 63.7546 230.779C63.9515 229.317 65.1251 228.694 67.0521 228.681L70.2185 228.635L70.2833 228.153C70.461 226.833 69.9073 226.359 68.5159 226.171C67.1066 225.982 66.4935 226.353 66.3351 227.531L66.299 227.798L64.4438 227.548L64.4678 227.37C64.7343 225.39 66.4784 224.172 68.851 224.491C71.3307 224.825 72.3777 226.491 72.0872 228.65L71.362 234.037L69.5781 233.797L69.7654 232.406L69.6762 232.394C69.046 233.163 67.9307 233.757 66.2538 233.531ZM65.6469 230.889C65.5533 231.585 65.9608 231.93 67.0847 232.081C68.3334 232.249 69.7743 231.935 70.0144 230.151L70.036 229.99L67.1598 230.039C66.1238 230.045 65.7358 230.229 65.6469 230.889ZM75.1334 234.545L73.2068 234.286L74.4002 225.42L76.1663 225.657L75.943 227.316L76.0143 227.326C76.5519 226.436 77.6174 225.671 79.3478 225.904C81.6491 226.214 82.4868 227.816 82.2155 229.832L81.4663 235.397L79.5397 235.138L80.2312 230C80.4449 228.413 80.0343 227.686 78.4109 227.467C76.8411 227.256 76.0459 227.766 75.8226 229.425L75.1334 234.545ZM86.9631 236.319C84.3764 235.971 83.1575 234.771 83.448 232.613L83.4529 232.577L85.3081 232.827L85.2649 233.148C85.1352 234.111 85.5153 234.526 87.2101 234.754C88.6372 234.946 88.948 234.661 89.0368 234.001C89.1329 233.287 88.7336 233.016 87.4625 232.608L86.1201 232.192C84.5709 231.693 83.6679 230.844 83.8841 229.239C84.1002 227.633 85.5643 226.741 87.8834 227.053C89.9706 227.334 91.4012 228.58 91.1298 230.596L91.1082 230.756L89.2708 230.509L89.2996 230.295C89.4101 229.474 89.2039 228.847 87.6162 228.633C86.2069 228.444 85.8175 228.773 85.7263 229.451C85.635 230.129 85.9297 230.368 87.1448 230.786L88.6049 231.273C90.2718 231.842 91.0605 232.73 90.8636 234.192C90.6427 235.834 89.2108 236.622 86.9631 236.319ZM94.3771 237.135L92.4504 236.876L93.4278 229.616L92.1255 229.44L92.3416 227.835L93.6439 228.01C93.9485 226.017 95.2902 225.09 97.5379 225.392L98.2515 225.488L98.045 227.022L96.9746 226.878C96.1184 226.763 95.6827 227.031 95.5818 227.78L95.517 228.262L97.8361 228.574L97.62 230.18L95.3544 229.875L94.3771 237.135ZM101.218 238.238C98.2929 237.844 97.169 235.804 97.5412 233.039C97.911 230.292 99.8019 228.657 102.442 229.013C104.833 229.334 106.317 230.987 105.991 233.413C105.928 233.877 105.81 234.352 105.72 234.612L99.2805 233.745C99.1333 235.378 99.6116 236.278 101.467 236.528C102.947 236.727 103.586 236.304 103.694 235.502L103.713 235.359L105.622 235.616L105.6 235.776C105.355 237.596 103.609 238.56 101.218 238.238ZM102.188 230.631C100.511 230.406 99.7632 231.104 99.4712 232.463L104.163 233.095C104.438 231.588 103.704 230.835 102.188 230.631ZM108.756 239.071L106.829 238.812L108.03 229.892L109.796 230.13L109.606 231.539L109.696 231.551C110.163 230.778 111.079 230.175 112.382 230.351C114.237 230.6 114.768 232.052 114.545 233.711L114.465 234.3L112.539 234.041L112.587 233.684C112.745 232.506 112.464 232.033 111.34 231.881C110.181 231.725 109.692 232.114 109.534 233.291L108.756 239.071ZM118.791 240.603C116.205 240.255 114.986 239.056 115.276 236.897L115.281 236.862L117.136 237.111L117.093 237.432C116.963 238.396 117.344 238.81 119.038 239.038C120.465 239.23 120.776 238.945 120.865 238.285C120.961 237.572 120.562 237.3 119.291 236.893L117.948 236.476C116.399 235.977 115.496 235.129 115.712 233.523C115.928 231.918 117.393 231.025 119.712 231.337C121.799 231.618 123.229 232.864 122.958 234.88L122.936 235.041L121.099 234.793L121.128 234.579C121.238 233.759 121.032 233.131 119.444 232.918C118.035 232.728 117.646 233.057 117.554 233.735C117.463 234.413 117.758 234.652 118.973 235.07L120.433 235.557C122.1 236.127 122.889 237.014 122.692 238.477C122.471 240.118 121.039 240.906 118.791 240.603Z" fill="white"/>
<rect x="119.179" y="164" width="134" height="42" rx="21" transform="rotate(24.1429 119.179 164)" fill="#0066DA"/>
<rect x="119.179" y="164" width="134" height="42" rx="21" transform="rotate(24.1429 119.179 164)" stroke="white" stroke-width="5"/>
<path d="M119.264 193.627L117.408 192.795L126.628 183.711L129.174 184.852L128.528 197.779L126.607 196.918L126.771 193.559L121.662 191.269L119.264 193.627ZM125.454 187.564L123.001 189.956L126.861 191.686L127.014 188.263L127.221 185.91L127.089 185.851L125.454 187.564ZM131.198 198.975L129.424 198.18L133.105 189.967L134.731 190.696L134.149 191.994L134.231 192.031C134.899 191.422 135.949 191.104 137.148 191.641C138.856 192.407 138.953 193.95 138.269 195.478L138.026 196.02L136.252 195.224L136.399 194.896C136.885 193.812 136.75 193.278 135.715 192.814C134.647 192.335 134.069 192.569 133.583 193.653L131.198 198.975ZM140.475 203.134C138.652 202.317 138.001 201.216 138.826 199.376L140.696 195.204L139.333 194.593L139.995 193.115L141.391 193.741L142.675 191.89L144.038 192.501L143.132 194.521L145.596 195.626L144.934 197.104L142.47 196L140.637 200.089C140.254 200.944 140.549 201.253 141.649 201.747L142.651 202.196L142.004 203.641C141.622 203.569 141.034 203.384 140.475 203.134ZM148.872 195.851L147.114 195.063L147.908 193.249L149.682 194.044L148.872 195.851ZM144.766 205.057L142.992 204.262L146.673 196.049L148.447 196.844L144.766 205.057ZM148.168 206.582L146.394 205.787L150.054 197.623L151.68 198.352L150.995 199.88L151.061 199.909C151.829 199.208 153.051 198.77 154.611 199.469C156.04 200.11 156.633 201.164 156.563 202.376L156.612 202.398C157.373 201.713 158.586 201.251 160.196 201.972C162.298 202.915 162.631 204.681 161.799 206.537L159.502 211.662L157.728 210.867L159.848 206.136C160.504 204.674 160.333 203.868 158.854 203.205C157.507 202.602 156.633 202.88 155.963 204.375L153.835 209.122L152.061 208.327L154.182 203.596C154.837 202.134 154.666 201.328 153.187 200.665C151.841 200.062 150.966 200.34 150.304 201.819L148.168 206.582ZM164.724 214.2C162.03 212.992 161.531 210.717 162.673 208.171C163.806 205.642 166.083 204.611 168.514 205.701C170.715 206.687 171.67 208.693 170.669 210.927C170.477 211.354 170.229 211.775 170.07 212L164.14 209.342C163.536 210.866 163.739 211.865 165.447 212.63C166.811 213.241 167.543 213.017 167.874 212.278L167.933 212.147L169.69 212.934L169.624 213.082C168.873 214.758 166.925 215.186 164.724 214.2ZM167.811 207.181C166.267 206.488 165.352 206.946 164.687 208.167L169.006 210.103C169.698 208.736 169.207 207.806 167.811 207.181ZM181.02 209.905C179.854 209.383 179.151 209.541 178.636 210.691C178.135 211.808 178.583 212.482 179.7 212.983L182.541 214.256L183.314 212.532L185.056 213.312L184.282 215.037L186.056 215.832L185.394 217.31L183.62 216.515L182.994 217.911C181.956 220.227 179.992 221.043 176.97 219.689C174.309 218.496 173.295 216.799 174.244 214.68C174.951 213.103 176.34 212.601 177.832 213.013L177.869 212.931C176.65 212.129 176.45 210.816 177.009 209.567C177.893 207.596 179.745 207.381 182.012 208.397L183.753 209.177L183.024 210.804L181.02 209.905ZM177.781 218.099C179.785 218.998 180.554 218.691 181.253 217.131L181.879 215.735L179.054 214.468C177.641 213.835 176.734 213.922 176.116 215.302C175.542 216.583 175.925 217.267 177.781 218.099ZM191.256 225.895L187.347 224.143L192.28 213.138L196.189 214.89C199.589 216.414 200.815 219.488 199.291 222.888C197.767 226.288 194.657 227.419 191.256 225.895ZM195.475 216.483L193.34 215.526L189.835 223.345L191.971 224.302C194.599 225.48 196.136 224.867 197.402 222.041C198.668 219.216 198.103 217.661 195.475 216.483ZM200.382 230.182C198.92 229.527 198.125 228.263 198.766 226.834C199.369 225.488 200.671 225.223 202.523 225.757L205.572 226.611L205.771 226.167C206.316 224.952 205.92 224.34 204.638 223.766C203.341 223.184 202.648 223.367 202.162 224.451L202.051 224.697L200.343 223.932L200.417 223.767C201.234 221.944 203.252 221.271 205.436 222.25C207.719 223.273 208.251 225.168 207.36 227.156L205.137 232.116L203.494 231.38L204.068 230.099L203.986 230.062C203.164 230.621 201.926 230.874 200.382 230.182ZM200.549 227.476C200.262 228.117 200.555 228.564 201.59 229.027C202.74 229.543 204.21 229.65 204.947 228.007L205.013 227.859L202.241 227.09C201.246 226.802 200.822 226.868 200.549 227.476ZM210.156 234.366C208.332 233.549 207.681 232.448 208.506 230.608L210.376 226.436L209.013 225.825L209.675 224.347L211.071 224.973L212.355 223.122L213.718 223.733L212.813 225.753L215.276 226.858L214.614 228.336L212.15 227.232L210.317 231.321C209.934 232.176 210.229 232.485 211.33 232.979L212.332 233.428L211.684 234.873C211.302 234.801 210.714 234.616 210.156 234.366ZM214.947 236.711C213.485 236.055 212.69 234.792 213.33 233.363C213.934 232.016 215.236 231.751 217.088 232.285L220.137 233.139L220.336 232.696C220.881 231.48 220.484 230.869 219.203 230.294C217.906 229.713 217.212 229.895 216.726 230.979L216.616 231.226L214.908 230.46L214.981 230.296C215.799 228.472 217.817 227.799 220.001 228.778C222.284 229.801 222.816 231.696 221.925 233.684L219.701 238.644L218.059 237.908L218.633 236.627L218.551 236.59C217.729 237.149 216.491 237.403 214.947 236.711ZM215.114 234.004C214.827 234.645 215.12 235.092 216.155 235.556C217.304 236.071 218.775 236.178 219.511 234.535L219.578 234.388L216.806 233.619C215.811 233.33 215.386 233.397 215.114 234.004Z" fill="white"/>
<rect x="230" y="235.688" width="127" height="42" rx="21" transform="rotate(-17.2626 230 235.688)" fill="#FFCD04"/>
<rect x="230" y="235.688" width="127" height="42" rx="21" transform="rotate(-17.2626 230 235.688)" stroke="white" stroke-width="5"/>
<path d="M254.025 256.495L248.524 258.205L244.946 246.688L250.24 245.043C252.492 244.343 254.138 244.849 254.742 246.792C255.158 248.132 254.685 249.278 253.276 249.961L253.319 250.099C255.142 249.777 256.388 250.634 256.858 252.147C257.467 254.106 256.449 255.742 254.025 256.495ZM247.32 247.778L248.287 250.89L251.553 249.875C252.945 249.442 253.378 248.893 253.015 247.724C252.646 246.538 252.03 246.315 250.638 246.747L247.32 247.778ZM248.768 252.437L249.863 255.96L253.455 254.844C254.848 254.411 255.326 253.829 254.904 252.471C254.477 251.096 253.753 250.888 252.36 251.32L248.768 252.437ZM258.062 244.685L256.222 245.257L255.618 243.372L257.474 242.795L258.062 244.685ZM261.07 254.306L259.214 254.883L256.543 246.288L258.399 245.711L261.07 254.306ZM264.631 253.199L262.775 253.776L259.196 242.26L261.052 241.683L264.631 253.199ZM268.375 252.036L266.518 252.613L262.939 241.096L264.796 240.519L268.375 252.036ZM276.129 252.888L274.289 253.459L270.711 241.942L272.395 241.419L272.833 242.828L272.919 242.802C273.005 241.682 273.803 240.793 275.281 240.334C277.688 239.586 279.551 240.911 280.395 243.626C281.233 246.325 280.484 248.462 278.163 249.183C276.633 249.658 275.469 249.247 274.845 248.574L274.793 248.59L276.129 252.888ZM274.115 246.407C274.558 247.834 275.592 248.248 277.104 247.778C278.737 247.27 279.19 246.3 278.538 244.203C277.881 242.089 276.976 241.541 275.326 242.054C273.813 242.524 273.196 243.451 273.64 244.877L274.115 246.407ZM285.645 246.858C284.115 247.333 282.684 246.911 282.219 245.416C281.781 244.006 282.583 242.947 284.325 242.122L287.177 240.746L287.032 240.282C286.637 239.01 285.935 238.813 284.594 239.23C283.236 239.652 282.837 240.247 283.19 241.382L283.27 241.64L281.482 242.195L281.429 242.023C280.836 240.115 281.904 238.276 284.19 237.565C286.579 236.823 288.231 237.893 288.878 239.972L290.491 245.164L288.772 245.698L288.355 244.357L288.269 244.384C288.022 245.347 287.261 246.356 285.645 246.858ZM283.981 244.717C284.189 245.388 284.705 245.529 285.788 245.193C286.991 244.819 288.165 243.926 287.631 242.207L287.583 242.053L284.995 243.309C284.058 243.751 283.783 244.081 283.981 244.717ZM294.151 247.231C293.687 247.375 293.132 247.472 292.813 247.477L292.343 245.964L293.512 245.601C294.251 245.371 294.472 245.171 294.549 244.449L294.651 243.626L288.439 236.433L290.485 235.798L293.491 239.406L294.841 241.022L294.979 240.979L295.107 238.904L295.384 234.275L297.429 233.64L296.36 244.452C296.194 246.162 295.491 246.814 294.151 247.231ZM302.837 241.327L300.98 241.904L298.326 233.361L300.027 232.832L300.524 234.431L300.593 234.409C300.705 233.375 301.332 232.238 302.965 231.731C304.46 231.266 305.602 231.665 306.351 232.62L306.403 232.604C306.521 231.587 307.125 230.438 308.809 229.915C311.01 229.231 312.427 230.336 313.031 232.278L314.697 237.641L312.841 238.218L311.303 233.268C310.827 231.738 310.166 231.246 308.618 231.727C307.209 232.165 306.737 232.952 307.223 234.517L308.767 239.484L306.911 240.061L305.372 235.111C304.897 233.581 304.235 233.089 302.688 233.57C301.279 234.008 300.807 234.795 301.288 236.342L302.837 241.327ZM320.293 236.091C317.474 236.967 315.595 235.591 314.767 232.926C313.944 230.279 314.97 228 317.514 227.21C319.817 226.494 321.861 227.367 322.587 229.705C322.726 230.152 322.819 230.632 322.847 230.906L316.642 232.834C317.197 234.377 318.01 234.991 319.797 234.436C321.224 233.992 321.624 233.34 321.384 232.567L321.341 232.429L323.181 231.857L323.229 232.012C323.774 233.765 322.596 235.375 320.293 236.091ZM317.966 228.785C316.35 229.287 315.966 230.235 316.274 231.591L320.795 230.186C320.41 228.704 319.427 228.331 317.966 228.785ZM327.479 233.669L325.623 234.246L322.968 225.703L324.67 225.175L325.167 226.773L325.235 226.752C325.348 225.718 325.991 224.575 327.659 224.057C329.876 223.368 331.311 224.468 331.915 226.41L333.581 231.773L331.725 232.35L330.187 227.4C329.711 225.87 329.032 225.383 327.468 225.869C325.955 226.339 325.449 227.138 325.946 228.736L327.479 233.669ZM338.833 230.141C336.925 230.734 335.71 230.339 335.111 228.414L333.755 224.048L332.328 224.491L331.847 222.944L333.308 222.49L333.046 220.253L334.473 219.81L335.13 221.924L337.709 221.123L338.189 222.67L335.611 223.471L336.941 227.751C337.219 228.645 337.645 228.682 338.797 228.324L339.845 227.998L340.315 229.511C339.981 229.709 339.418 229.96 338.833 230.141ZM345.149 228.367C342.656 229.142 341.045 228.568 340.399 226.488L340.388 226.454L342.176 225.898L342.272 226.208C342.561 227.136 343.08 227.351 344.713 226.844C346.088 226.417 346.25 226.027 346.052 225.391C345.838 224.703 345.362 224.625 344.038 224.792L342.645 224.98C341.029 225.18 339.853 224.792 339.372 223.245C338.892 221.698 339.843 220.271 342.078 219.577C344.089 218.952 345.911 219.479 346.515 221.421L346.563 221.576L344.792 222.126L344.728 221.92C344.483 221.129 344.031 220.647 342.501 221.122C341.144 221.544 340.929 222.007 341.132 222.66C341.335 223.313 341.703 223.406 342.981 223.273L344.511 223.099C346.262 222.913 347.351 223.385 347.789 224.795C348.281 226.376 347.314 227.694 345.149 228.367Z" fill="#121212"/>
<rect x="3" y="160.688" width="127" height="42" rx="21" transform="rotate(-17.2626 3 160.688)" fill="#FFCD04"/>
<rect x="3" y="160.688" width="127" height="42" rx="21" transform="rotate(-17.2626 3 160.688)" stroke="white" stroke-width="5"/>
<path d="M27.025 181.495L21.5245 183.205L17.9456 171.688L23.2399 170.043C25.4917 169.343 27.1381 169.849 27.7417 171.792C28.1583 173.132 27.6851 174.278 26.2763 174.961L26.319 175.099C28.1417 174.777 29.3881 175.634 29.8582 177.147C30.4671 179.106 29.4487 180.742 27.025 181.495ZM20.3202 172.778L21.287 175.89L24.553 174.875C25.9453 174.442 26.3778 173.893 26.0146 172.724C25.646 171.538 25.03 171.315 23.6377 171.747L20.3202 172.778ZM21.7678 177.437L22.8628 180.96L26.4553 179.844C27.8476 179.411 28.3264 178.829 27.9044 177.471C27.4771 176.096 26.7526 175.888 25.3603 176.32L21.7678 177.437ZM31.0617 169.685L29.2225 170.257L28.6177 168.372L30.4741 167.795L31.0617 169.685ZM34.0702 179.306L32.2137 179.883L29.543 171.288L31.3994 170.711L34.0702 179.306ZM37.6313 178.199L35.7748 178.776L32.196 167.26L34.0524 166.683L37.6313 178.199ZM41.3746 177.036L39.5182 177.613L35.9394 166.096L37.7958 165.519L41.3746 177.036ZM49.1287 177.888L47.2895 178.459L43.7106 166.942L45.3952 166.419L45.8332 167.828L45.9191 167.802C46.0047 166.682 46.8029 165.793 48.2811 165.334C50.6876 164.586 52.5507 165.911 53.3946 168.626C54.2333 171.325 53.4836 173.462 51.163 174.183C49.6332 174.658 48.4688 174.247 47.8449 173.574L47.7933 173.59L49.1287 177.888ZM47.115 171.407C47.5583 172.834 48.5917 173.248 50.1044 172.778C51.7373 172.27 52.1899 171.3 51.5382 169.203C50.8812 167.089 49.9758 166.541 48.3256 167.054C46.813 167.524 46.1962 168.451 46.6396 169.877L47.115 171.407ZM58.6453 171.858C57.1154 172.333 55.6837 171.911 55.219 170.416C54.781 169.006 55.5826 167.947 57.3246 167.122L60.1766 165.746L60.0324 165.282C59.6371 164.01 58.9352 163.813 57.5944 164.23C56.2365 164.652 55.8371 165.247 56.1897 166.382L56.2698 166.64L54.4821 167.195L54.4287 167.023C53.8358 165.115 54.9039 163.276 57.1901 162.565C59.5794 161.823 61.2313 162.893 61.8776 164.972L63.4908 170.164L61.7719 170.698L61.3552 169.357L61.2693 169.384C61.0218 170.347 60.2611 171.356 58.6453 171.858ZM56.9811 169.717C57.1894 170.388 57.7046 170.529 58.7875 170.193C59.9908 169.819 61.1648 168.926 60.6306 167.207L60.5826 167.053L57.9949 168.309C57.0578 168.751 56.7835 169.081 56.9811 169.717ZM67.1507 172.231C66.6866 172.375 66.1324 172.472 65.8135 172.477L65.3434 170.964L66.5123 170.601C67.2514 170.371 67.4719 170.171 67.5492 169.449L67.6515 168.626L61.4393 161.433L63.4848 160.798L66.491 164.406L67.8414 166.022L67.9789 165.979L68.1068 163.904L68.3837 159.275L70.4292 158.64L69.3597 169.452C69.1937 171.162 68.4915 171.814 67.1507 172.231ZM75.8369 166.327L73.9805 166.904L71.3257 158.361L73.0275 157.832L73.5242 159.431L73.593 159.409C73.7052 158.375 74.332 157.238 75.965 156.731C77.4604 156.266 78.6023 156.665 79.3514 157.62L79.4029 157.604C79.5205 156.587 80.1248 155.438 81.8093 154.915C84.0095 154.231 85.4273 155.336 86.0309 157.278L87.6975 162.641L85.841 163.218L84.3027 158.268C83.8273 156.738 83.1655 156.246 81.6185 156.727C80.209 157.165 79.7374 157.952 80.2235 159.517L81.7672 164.484L79.9108 165.061L78.3724 160.111C77.897 158.581 77.2352 158.089 75.6882 158.57C74.2787 159.008 73.8071 159.795 74.2879 161.342L75.8369 166.327ZM93.2929 161.091C90.4739 161.967 88.5948 160.591 87.7669 157.926C86.9443 155.279 87.9701 153 90.5141 152.21C92.8175 151.494 94.8606 152.367 95.587 154.705C95.7259 155.152 95.8186 155.632 95.8471 155.906L89.6418 157.834C90.1967 159.377 91.0096 159.991 92.7973 159.436C94.224 158.992 94.6245 158.34 94.3841 157.567L94.3414 157.429L96.1806 156.857L96.2287 157.012C96.7735 158.765 95.5963 160.375 93.2929 161.091ZM90.9658 153.785C89.3501 154.287 88.9663 155.235 89.2744 156.591L93.7952 155.186C93.4099 153.704 92.4269 153.331 90.9658 153.785ZM100.479 158.669L98.6228 159.246L95.968 150.703L97.6698 150.175L98.1665 151.773L98.2353 151.752C98.3475 150.718 98.9915 149.575 100.659 149.057C102.876 148.368 104.311 149.468 104.915 151.41L106.581 156.773L104.725 157.35L103.187 152.4C102.711 150.87 102.032 150.383 100.468 150.869C98.9554 151.339 98.4494 152.138 98.9462 153.736L100.479 158.669ZM111.833 155.141C109.925 155.734 108.71 155.339 108.111 153.414L106.755 149.048L105.328 149.491L104.847 147.944L106.308 147.49L106.046 145.253L107.473 144.81L108.13 146.924L110.709 146.123L111.189 147.67L108.611 148.471L109.941 152.751C110.219 153.645 110.645 153.682 111.797 153.324L112.845 152.998L113.315 154.511C112.981 154.709 112.418 154.96 111.833 155.141ZM118.149 153.367C115.656 154.142 114.045 153.568 113.399 151.488L113.388 151.454L115.176 150.898L115.272 151.208C115.561 152.136 116.08 152.351 117.713 151.844C119.088 151.417 119.25 151.027 119.052 150.391C118.838 149.703 118.362 149.625 117.038 149.792L115.645 149.98C114.029 150.18 112.853 149.792 112.372 148.245C111.892 146.698 112.843 145.271 115.078 144.577C117.089 143.952 118.911 144.479 119.515 146.421L119.563 146.576L117.792 147.126L117.728 146.92C117.483 146.129 117.031 145.647 115.501 146.122C114.144 146.544 113.929 147.007 114.132 147.66C114.335 148.313 114.703 148.406 115.981 148.273L117.511 148.099C119.262 147.913 120.351 148.385 120.789 149.795C121.281 151.376 120.314 152.694 118.149 153.367Z" fill="#121212"/>
<path d="M152.361 230.342C153.157 229.204 154.843 229.204 155.639 230.342L158.703 234.722C159.185 235.412 160.048 235.726 160.86 235.508L166.023 234.122C167.364 233.762 168.655 234.845 168.534 236.229L168.066 241.554C167.992 242.392 168.451 243.187 169.214 243.542L174.059 245.799C175.318 246.385 175.611 248.045 174.628 249.027L170.847 252.805C170.252 253.4 170.092 254.303 170.448 255.066L172.709 259.91C173.297 261.168 172.454 262.628 171.071 262.748L165.745 263.212C164.907 263.285 164.204 263.875 163.987 264.687L162.605 269.851C162.246 271.193 160.663 271.769 159.525 270.972L155.148 267.904C154.459 267.422 153.541 267.422 152.852 267.904L148.475 270.972C147.337 271.769 145.754 271.193 145.395 269.851L144.013 264.687C143.796 263.875 143.093 263.285 142.255 263.212L136.929 262.748C135.546 262.628 134.703 261.168 135.291 259.91L137.552 255.066C137.908 254.303 137.748 253.4 137.153 252.805L133.372 249.027C132.389 248.045 132.682 246.385 133.941 245.799L138.786 243.542C139.549 243.187 140.008 242.392 139.934 241.554L139.466 236.229C139.345 234.845 140.636 233.762 141.977 234.122L147.14 235.508C147.952 235.726 148.815 235.412 149.297 234.722L152.361 230.342Z" fill="#FFCD04"/>
<path d="M146.813 257.1L148.083 252.538L146.813 252.184L147.109 251.121L148.379 251.474L148.882 249.668L147.612 249.315L147.908 248.251L149.178 248.605L150.435 244.089L152.825 244.755L153.731 249.873L156.375 250.609L157.632 246.093L159.598 246.64L158.341 251.156L159.639 251.518L159.343 252.581L158.045 252.219L157.542 254.026L158.841 254.387L158.545 255.45L157.246 255.089L155.976 259.651L153.586 258.986L152.674 253.816L150.049 253.085L148.779 257.648L146.813 257.1ZM151.524 247.788L151.144 249.152L151.887 249.359L151.609 247.812L151.524 247.788ZM150.345 252.022L152.462 252.611L152.099 250.564L150.848 250.216L150.345 252.022ZM154.306 253.125L155.576 253.478L156.079 251.672L153.943 251.077L154.306 253.125ZM154.805 255.919L154.89 255.943L155.28 254.541L154.518 254.329L154.805 255.919Z" fill="#866B00"/>
<path d="M249.361 180.342C250.157 179.204 251.843 179.204 252.639 180.342L255.703 184.722C256.185 185.412 257.048 185.726 257.86 185.508L263.023 184.122C264.364 183.762 265.655 184.845 265.534 186.229L265.066 191.554C264.992 192.392 265.451 193.187 266.214 193.542L271.059 195.799C272.318 196.385 272.611 198.045 271.628 199.027L267.847 202.805C267.252 203.4 267.092 204.303 267.448 205.066L269.709 209.91C270.297 211.168 269.454 212.628 268.071 212.748L262.745 213.212C261.907 213.285 261.204 213.875 260.987 214.687L259.605 219.851C259.246 221.193 257.663 221.769 256.525 220.972L252.148 217.904C251.459 217.422 250.541 217.422 249.852 217.904L245.475 220.972C244.337 221.769 242.754 221.193 242.395 219.851L241.013 214.687C240.796 213.875 240.093 213.285 239.255 213.212L233.929 212.748C232.546 212.628 231.703 211.168 232.291 209.91L234.552 205.066C234.908 204.303 234.748 203.4 234.153 202.805L230.372 199.027C229.389 198.045 229.682 196.385 230.941 195.799L235.786 193.542C236.549 193.187 237.008 192.392 236.934 191.554L236.466 186.229C236.345 184.845 237.636 183.762 238.977 184.122L244.14 185.508C244.952 185.726 245.815 185.412 246.297 184.722L249.361 180.342Z" fill="#FFCD04"/>
<path d="M243.813 207.1L245.083 202.538L243.813 202.184L244.109 201.121L245.379 201.474L245.882 199.668L244.612 199.315L244.908 198.251L246.178 198.605L247.435 194.089L249.825 194.755L250.731 199.873L253.375 200.609L254.632 196.093L256.598 196.64L255.341 201.156L256.639 201.518L256.343 202.581L255.045 202.219L254.542 204.026L255.841 204.387L255.545 205.45L254.246 205.089L252.976 209.651L250.586 208.986L249.674 203.816L247.049 203.085L245.779 207.648L243.813 207.1ZM248.524 197.788L248.144 199.152L248.887 199.359L248.609 197.812L248.524 197.788ZM247.345 202.022L249.462 202.611L249.099 200.564L247.848 200.216L247.345 202.022ZM251.306 203.125L252.576 203.478L253.079 201.672L250.943 201.077L251.306 203.125ZM251.805 205.919L251.89 205.943L252.28 204.541L251.518 204.329L251.805 205.919Z" fill="#866B00"/>
<rect x="259.306" y="136" width="140" height="42" rx="21" transform="rotate(12.8015 259.306 136)" fill="#00AC47"/>
<rect x="259.306" y="136" width="140" height="42" rx="21" transform="rotate(12.8015 259.306 136)" stroke="white" stroke-width="5"/>
<path d="M269.675 166.044L264.058 164.768L266.73 153.008L272.136 154.236C274.436 154.759 275.607 156.022 275.156 158.005C274.845 159.374 273.862 160.129 272.3 160.014L272.268 160.154C274.007 160.789 274.656 162.155 274.305 163.7C273.851 165.701 272.15 166.607 269.675 166.044ZM268.239 155.141L267.517 158.318L270.852 159.076C272.274 159.399 272.923 159.14 273.195 157.947C273.47 156.736 273.048 156.234 271.627 155.911L268.239 155.141ZM267.158 159.898L266.341 163.496L270.009 164.33C271.431 164.653 272.137 164.389 272.452 163.002C272.771 161.598 272.248 161.054 270.827 160.731L267.158 159.898ZM277.426 167.99C275.864 167.635 274.836 166.552 275.183 165.025C275.51 163.586 276.735 163.071 278.655 163.23L281.813 163.468L281.921 162.994C282.216 161.695 281.707 161.173 280.338 160.862C278.951 160.547 278.307 160.862 278.044 162.021L277.984 162.284L276.159 161.869L276.198 161.694C276.641 159.745 278.487 158.688 280.822 159.218C283.262 159.773 284.155 161.526 283.673 163.65L282.468 168.951L280.713 168.552L281.024 167.183L280.936 167.163C280.24 167.873 279.076 168.365 277.426 167.99ZM277.058 165.304C276.902 165.988 277.277 166.369 278.383 166.62C279.612 166.899 281.075 166.715 281.474 164.96L281.51 164.802L278.641 164.593C277.608 164.506 277.206 164.654 277.058 165.304ZM286.179 169.794L284.283 169.364L286.266 160.64L288.003 161.035L287.632 162.667L287.703 162.683C288.318 161.845 289.447 161.178 291.15 161.565C293.414 162.08 294.105 163.75 293.655 165.734L292.41 171.21L290.515 170.779L291.663 165.724C292.018 164.162 291.674 163.401 290.077 163.038C288.532 162.687 287.695 163.124 287.324 164.757L286.179 169.794ZM296.121 172.053L294.225 171.623L296.897 159.862L298.793 160.293L297.317 166.788L299.038 167.178L302.158 164.251L304.387 164.758L300.413 168.192L302.352 173.469L300.141 172.967L298.668 168.885L296.931 168.49L296.121 172.053ZM310.406 175.299C308.458 174.857 307.604 173.906 308.05 171.94L309.063 167.481L307.606 167.15L307.965 165.571L309.457 165.91L310.352 163.842L311.809 164.173L311.318 166.332L313.951 166.931L313.592 168.51L310.959 167.912L309.966 172.283C309.759 173.195 310.109 173.441 311.285 173.708L312.356 173.952L312.005 175.496C311.616 175.5 311.003 175.435 310.406 175.299ZM315.165 176.381L313.269 175.95L315.263 167.174L317.001 167.568L316.686 168.955L316.774 168.975C317.308 168.247 318.275 167.729 319.557 168.02C321.382 168.435 321.781 169.928 321.41 171.561L321.278 172.14L319.383 171.709L319.463 171.358C319.726 170.199 319.488 169.702 318.382 169.451C317.241 169.192 316.72 169.535 316.457 170.694L315.165 176.381ZM323.416 178.44C321.854 178.085 320.826 177.002 321.173 175.475C321.5 174.036 322.725 173.52 324.645 173.68L327.803 173.918L327.91 173.444C328.206 172.145 327.697 171.623 326.327 171.312C324.941 170.997 324.297 171.312 324.034 172.47L323.974 172.734L322.148 172.319L322.188 172.143C322.631 170.195 324.477 169.138 326.812 169.668C329.251 170.223 330.145 171.976 329.663 174.1L328.458 179.401L326.703 179.002L327.014 177.633L326.926 177.613C326.23 178.322 325.066 178.815 323.416 178.44ZM323.048 175.754C322.892 176.438 323.267 176.819 324.373 177.07C325.602 177.349 327.065 177.165 327.464 175.41L327.5 175.252L324.631 175.043C323.598 174.956 323.195 175.104 323.048 175.754ZM332.169 180.244L330.273 179.814L332.255 171.09L333.993 171.485L333.622 173.117L333.692 173.133C334.308 172.295 335.437 171.628 337.14 172.015C339.404 172.53 340.095 174.2 339.644 176.184L338.4 181.66L336.504 181.229L337.653 176.174C338.008 174.612 337.664 173.851 336.067 173.488C334.522 173.137 333.684 173.574 333.314 175.207L332.169 180.244ZM343.792 183.07C341.247 182.492 340.141 181.188 340.623 179.064L340.631 179.029L342.457 179.444L342.385 179.76C342.169 180.708 342.511 181.154 344.178 181.533C345.583 181.852 345.918 181.596 346.065 180.947C346.225 180.245 345.851 179.938 344.622 179.419L343.322 178.884C341.824 178.248 341 177.322 341.359 175.743C341.718 174.163 343.257 173.405 345.538 173.923C347.592 174.39 348.905 175.759 348.455 177.743L348.419 177.901L346.611 177.49L346.659 177.279C346.842 176.472 346.693 175.829 345.131 175.474C343.744 175.159 343.327 175.451 343.175 176.118C343.024 176.785 343.296 177.05 344.469 177.575L345.879 178.191C347.488 178.907 348.195 179.862 347.868 181.301C347.501 182.916 346.004 183.572 343.792 183.07ZM351.103 184.547L349.208 184.116L350.831 176.972L349.55 176.681L349.909 175.101L351.19 175.392C351.672 173.434 353.091 172.631 355.303 173.133L356.005 173.293L355.662 174.802L354.609 174.563C353.766 174.372 353.308 174.6 353.141 175.337L353.033 175.811L355.315 176.329L354.956 177.909L352.727 177.403L351.103 184.547ZM357.819 186.257C354.94 185.603 354.003 183.47 354.622 180.75C355.236 178.047 357.265 176.588 359.863 177.178C362.215 177.713 363.546 179.492 363.004 181.879C362.9 182.335 362.74 182.797 362.627 183.049L356.291 181.609C355.998 183.222 356.394 184.161 358.219 184.576C359.676 184.907 360.349 184.543 360.529 183.753L360.561 183.613L362.439 184.04L362.403 184.198C361.996 185.988 360.171 186.791 357.819 186.257ZM359.465 178.768C357.815 178.393 357.008 179.022 356.595 180.349L361.212 181.398C361.621 179.922 360.957 179.107 359.465 178.768ZM365.251 187.761L363.356 187.331L365.35 178.554L367.088 178.949L366.773 180.336L366.86 180.356C367.395 179.628 368.362 179.109 369.643 179.401C371.469 179.815 371.868 181.309 371.497 182.941L371.365 183.521L369.469 183.09L369.549 182.739C369.812 181.58 369.575 181.083 368.469 180.832C367.328 180.573 366.807 180.916 366.544 182.074L365.251 187.761ZM375.109 190.186C372.564 189.608 371.457 188.304 371.94 186.18L371.948 186.145L373.774 186.56L373.702 186.876C373.486 187.824 373.828 188.27 375.495 188.649C376.9 188.968 377.235 188.712 377.382 188.063C377.542 187.361 377.168 187.054 375.939 186.535L374.639 186C373.141 185.364 372.317 184.438 372.676 182.859C373.035 181.279 374.573 180.521 376.855 181.039C378.909 181.506 380.222 182.875 379.772 184.858L379.736 185.016L377.928 184.606L377.976 184.395C378.159 183.588 378.01 182.945 376.448 182.59C375.061 182.275 374.644 182.567 374.492 183.234C374.341 183.901 374.613 184.166 375.786 184.691L377.196 185.307C378.805 186.023 379.512 186.978 379.185 188.417C378.818 190.032 377.321 190.688 375.109 190.186Z" fill="white"/>
</g>
<defs>
<clipPath id="clip0_70_499">
<rect width="384" height="250" fill="white"/>
</clipPath>
</defs>
</svg>
