<svg width="378" height="148" viewBox="0 0 378 148" fill="none" xmlns="http://www.w3.org/2000/svg">
<rect y="66.0309" width="36.2466" height="46.6027" rx="12.9452" fill="#D3D3D3"/>
<path d="M18.1536 143.232C14.8769 143.232 12.7126 141.675 12.5306 139.106L12.5204 138.954H14.7252L14.7454 139.086C14.9477 140.431 16.2928 141.27 18.2447 141.27C20.1965 141.27 21.4304 140.391 21.4304 139.025V139.015C21.4304 137.842 20.6314 137.205 18.6998 136.78L17.1119 136.446C14.2498 135.84 12.8643 134.525 12.8643 132.361V132.35C12.8744 129.862 15.069 128.153 18.1536 128.153C21.1978 128.153 23.2811 129.812 23.4328 132.259L23.443 132.431H21.2382L21.2281 132.29C21.0258 130.935 19.8527 130.115 18.1233 130.115C16.313 130.125 15.1601 130.985 15.1601 132.259V132.269C15.1601 133.362 15.9894 134.029 17.8098 134.424L19.4077 134.757C22.4215 135.395 23.716 136.618 23.716 138.874V138.884C23.716 141.544 21.6124 143.232 18.1536 143.232Z" fill="#878787"/>
<rect x="56.9589" y="29.7842" width="36.2466" height="82.8493" rx="12.9452" fill="#D3D3D3"/>
<path d="M67.7095 142.99V128.396H70.3289L75.0519 140.047H75.1126L79.8456 128.396H82.4549V142.99H80.3918V132.219H80.321L75.9216 142.99H74.2428L69.8435 132.219H69.7727V142.99H67.7095Z" fill="#878787"/>
<rect x="113.918" y="20.7227" width="36.2466" height="91.911" rx="12.9452" fill="#D3D3D3"/>
<path d="M130.908 142.99V130.348H126.438V128.396H137.634V130.348H133.174V142.99H130.908Z" fill="#878787"/>
<rect x="170.877" y="38.8459" width="36.2466" height="73.7877" rx="12.9452" fill="#D3D3D3"/>
<path d="M183.65 142.99L179.716 128.396H182.072L184.793 139.834H184.833L187.918 128.396H190.062L193.147 139.834H193.197L195.918 128.396H198.274L194.33 142.99H192.155L189.02 131.986H188.97L185.824 142.99H183.65Z" fill="#878787"/>
<rect x="227.836" y="0.0102539" width="36.2466" height="112.623" rx="12.9452" fill="url(#paint0_linear_69_358)"/>
<path d="M244.826 142.99V130.348H240.356V128.396H251.552V130.348H247.092V142.99H244.826Z" fill="#878787"/>
<rect x="284.795" y="42.7295" width="36.2466" height="69.9041" rx="12.9452" fill="#D3D3D3"/>
<path d="M298.721 142.99V128.396H307.833V130.348H300.986V134.97H307.257V136.881H300.986V142.99H298.721Z" fill="#878787"/>
<rect x="341.754" y="20.7227" width="36.2466" height="91.911" rx="12.9452" fill="#D3D3D3"/>
<path d="M359.907 143.232C356.63 143.232 354.466 141.675 354.284 139.106L354.274 138.954H356.479L356.499 139.086C356.701 140.431 358.046 141.27 359.998 141.27C361.95 141.27 363.184 140.391 363.184 139.025V139.015C363.184 137.842 362.385 137.205 360.453 136.78L358.865 136.446C356.003 135.84 354.618 134.525 354.618 132.361V132.35C354.628 129.862 356.823 128.153 359.907 128.153C362.951 128.153 365.035 129.812 365.186 132.259L365.197 132.431H362.992L362.982 132.29C362.779 130.935 361.606 130.115 359.877 130.115C358.067 130.125 356.914 130.985 356.914 132.259V132.269C356.914 133.362 357.743 134.029 359.563 134.424L361.161 134.757C364.175 135.395 365.47 136.618 365.47 138.874V138.884C365.47 141.544 363.366 143.232 359.907 143.232Z" fill="#878787"/>
<defs>
<linearGradient id="paint0_linear_69_358" x1="245.959" y1="0.0102539" x2="245.959" y2="112.634" gradientUnits="userSpaceOnUse">
<stop stop-color="#0066DA"/>
<stop offset="1" stop-color="#00AC47"/>
</linearGradient>
</defs>
</svg>
