<svg width="1248" height="1243" viewBox="0 0 1248 1243" fill="none" xmlns="http://www.w3.org/2000/svg">
<path d="M487.604 74.5H60.4743C32.2011 74.5 18.0645 74.5 9.2785 83.2823C0.492481 92.0645 0.486429 106.201 0.474326 134.474L0.0256959 1182.47C0.0135832 1210.77 0.00752683 1224.92 8.7951 1233.71C17.5827 1242.5 31.7303 1242.5 60.0257 1242.5H1188C1216.28 1242.5 1230.43 1242.5 1239.21 1233.71C1248 1224.93 1248 1210.78 1248 1182.5V60C1248 31.7157 1248 17.5736 1239.21 8.7868C1230.43 0 1216.28 0 1188 0H659.297C645.015 0 637.875 0 631.185 2.14049C624.495 4.28094 618.681 8.42606 607.052 16.7162L607.052 16.7166L557.264 52.2112C541.759 63.2651 534.006 68.792 525.087 71.646C516.167 74.5 506.646 74.5 487.604 74.5Z" fill="white"/>
</svg>
