<svg width="198" height="299" viewBox="0 0 198 299" fill="none" xmlns="http://www.w3.org/2000/svg">
<path d="M75.5119 47.4754C81.2608 43.3686 89.3426 46.2278 91.23 53.0361L98.4941 79.2403C99.6374 83.3649 103.24 86.3328 107.507 86.6656L134.617 88.7799C141.661 89.3292 146.014 96.7144 143.084 103.143L131.805 127.886C130.029 131.78 130.881 136.37 133.936 139.368L153.345 158.413C158.387 163.362 156.975 171.817 150.598 174.858L126.053 186.562C122.19 188.404 119.892 192.468 120.306 196.728L122.931 223.793C123.613 230.825 117.096 236.395 110.256 234.625L83.9308 227.814C79.7871 226.742 75.4156 228.378 72.9938 231.907L57.6077 254.328C53.6101 260.153 45.0378 260.23 40.9357 254.478L25.1473 232.339C22.6622 228.854 18.2618 227.297 14.1381 228.444L-12.0602 235.729C-18.867 237.622 -25.4835 232.171 -24.9284 225.128L-22.7921 198.02C-22.4558 193.753 -24.826 189.732 -28.7221 187.959L-53.4741 176.7C-59.9051 173.775 -61.4699 165.347 -56.5174 160.308L-37.4559 140.915C-34.4556 137.862 -33.6866 133.259 -35.532 129.397L-47.256 104.861C-50.3021 98.4868 -46.083 91.0242 -39.0503 90.3478L-11.9828 87.7444C-7.72238 87.3346 -4.17397 84.3022 -3.10525 80.1576L3.68453 53.8265C5.44865 46.9852 13.4775 43.9806 19.2996 47.9829L41.708 63.3872C45.2351 65.8119 49.9026 65.7697 53.3853 63.2818L75.5119 47.4754Z" fill="#0066DA"/>
<path d="M94.7898 137.586L77.6602 113.108C75.8749 110.585 71.9753 107.907 68.9804 107.146L39.9851 99.9437C34.3884 98.5681 27.211 101.291 23.9566 106.029L0.628459 139.994C-1.70436 143.39 -2.56361 149.403 -1.22046 153.288L10.005 186.362C11.97 192.217 18.6371 196.796 24.8069 196.528L59.7062 195.135C63.843 194.952 69.1182 192.034 71.451 188.637L94.7791 154.673C98.0755 149.963 98.0406 142.287 94.7898 137.586ZM65.8306 152.254L35.4159 157.901C34.3549 158.098 33.3566 157.844 32.5599 157.297C31.7632 156.75 31.1681 155.909 30.9711 154.848L28.9277 143.447C28.5469 141.396 29.9293 139.383 31.9805 139.002C34.0318 138.622 36.0445 140.004 36.4253 142.055L37.8435 149.694L64.5094 144.744C66.5606 144.363 68.5733 145.745 68.9541 147.797C69.335 149.848 67.9237 151.902 65.8306 152.254Z" fill="#97C8FF"/>
</svg>
