<svg width="179" height="299" viewBox="0 0 179 299" fill="none" xmlns="http://www.w3.org/2000/svg">
<path d="M176.512 47.4754C182.261 43.3686 190.343 46.2278 192.23 53.0361L199.494 79.2403C200.637 83.3649 204.24 86.3328 208.507 86.6656L235.617 88.7799C242.661 89.3292 247.014 96.7144 244.084 103.143L232.805 127.886C231.029 131.78 231.881 136.37 234.936 139.368L254.345 158.413C259.387 163.362 257.975 171.817 251.598 174.858L227.053 186.562C223.19 188.404 220.892 192.468 221.306 196.728L223.931 223.793C224.613 230.825 218.096 236.395 211.256 234.625L184.931 227.814C180.787 226.742 176.416 228.378 173.994 231.907L158.608 254.328C154.61 260.153 146.038 260.23 141.936 254.478L126.147 232.339C123.662 228.854 119.262 227.297 115.138 228.444L88.9398 235.729C82.133 237.622 75.5165 232.171 76.0715 225.128L78.2079 198.02C78.5442 193.753 76.1739 189.732 72.2779 187.959L47.5259 176.7C41.0949 173.775 39.5301 165.347 44.4826 160.308L63.5441 140.915C66.5444 137.862 67.3134 133.259 65.468 129.397L53.744 104.861C50.6978 98.4868 54.917 91.0242 61.9496 90.3478L89.0171 87.7444C93.2776 87.3346 96.826 84.3022 97.8947 80.1576L104.685 53.8265C106.449 46.9852 114.477 43.9806 120.3 47.9829L142.708 63.3872C146.235 65.8119 150.903 65.7697 154.385 63.2818L176.512 47.4754Z" fill="#FFCD04"/>
<path d="M130.264 174.228C134.039 176.821 139.201 175.863 141.794 172.088C144.386 168.313 143.428 163.151 139.653 160.558C135.878 157.965 130.716 158.924 128.124 162.699C125.531 166.473 126.489 171.635 130.264 174.228Z" fill="#9B7C00"/>
<path d="M179.12 159.524L182.72 154.282C190.496 142.96 198.082 126.076 174.473 109.861C150.865 93.6465 137.829 106.786 130.053 118.108L126.453 123.35C113.703 116.753 105.756 120.058 95.7044 134.692L90.3474 142.492C78.539 159.684 80.1805 168.526 97.3729 180.334L136.37 207.119C153.563 218.928 162.404 217.286 174.213 200.094L179.57 192.294C189.621 177.66 189.853 169.056 179.12 159.524ZM126.261 180.057C119.258 175.247 117.514 165.656 122.295 158.695C127.105 151.692 136.696 149.948 143.656 154.729C150.617 159.51 152.403 169.13 147.622 176.091C142.812 183.094 133.263 184.867 126.261 180.057ZM133.547 127.667C133.211 127.437 132.918 127.235 132.582 127.005L135.923 122.14C144.362 109.854 153.459 104.068 170.441 115.732C187.424 127.396 185.288 137.964 176.85 150.25L173.48 155.156C173.144 154.926 172.851 154.724 172.515 154.494L133.518 127.709L133.547 127.667Z" fill="#9B7C00"/>
</svg>
