<svg width="204" height="205" viewBox="0 0 204 205" fill="none" xmlns="http://www.w3.org/2000/svg">
<path d="M124.831 44.3369C134.015 42.3525 143.066 48.1939 145.042 57.3793L145.628 60.1063C146.686 65.0248 149.868 69.2222 154.318 71.5691L156.785 72.8703C165.096 77.2532 168.275 87.5463 163.884 95.8525L162.58 98.3185C160.229 102.766 159.968 108.027 161.869 112.685L162.922 115.268C166.471 123.967 162.29 133.896 153.588 137.436L151.004 138.487C146.344 140.383 142.763 144.245 141.224 149.035L140.371 151.691C137.498 160.636 127.913 165.555 118.971 162.673L116.316 161.817C111.528 160.274 106.301 160.931 102.044 163.611L99.6835 165.097C91.7326 170.103 81.2288 167.71 76.231 159.754L74.7472 157.392C72.0711 153.132 67.6454 150.276 62.6611 149.593L59.8976 149.214C50.5892 147.937 44.0812 139.352 45.3666 130.045L45.7482 127.282C46.4365 122.299 44.882 117.266 41.5031 113.539L39.6296 111.472C33.3194 104.511 33.8522 93.7514 40.8194 87.448L42.8878 85.5766C46.6185 82.2014 48.6626 77.347 48.4701 72.3197L48.3633 69.5324C48.0038 60.1439 55.3282 52.2439 64.7171 51.8937L67.5045 51.7897C72.532 51.6021 77.2181 49.1974 80.3021 45.2225L82.012 43.0187C87.7714 35.5955 98.4602 34.2519 105.878 40.0186L108.08 41.7307C112.052 44.8186 117.187 45.9886 122.105 44.9261L124.831 44.3369Z" fill="#0066DA"/>
<path d="M125.235 89.8663L104.229 76.3107C97.9277 72.2441 91.0154 73.7341 86.9488 80.0359L78.8154 92.6394C74.7488 98.9412 76.2388 105.853 82.5406 109.92L79.6532 114.394C78.5688 116.075 79.7876 118.29 81.784 118.239L95.1441 118.053L103.546 123.476C109.848 127.542 116.76 126.052 120.827 119.751L128.96 107.147C133.027 100.845 131.537 93.933 125.235 89.8663ZM98.2353 108.653C97.353 108.083 97.1207 106.922 97.6765 106.061C98.2323 105.199 99.3864 104.932 100.269 105.502C101.151 106.071 101.383 107.233 100.827 108.094C100.272 108.955 99.1175 109.222 98.2353 108.653ZM106.508 101.643C105.336 101.661 104.853 101.855 104.474 102.443L104.189 102.884C103.633 103.746 102.458 103.999 101.597 103.443C100.736 102.887 100.483 101.712 101.038 100.851L101.323 100.41C102.895 97.9733 105.454 97.9282 106.424 97.8998C107.54 97.8763 108.023 97.6818 108.375 97.1357C109.053 96.0854 108.747 94.6684 107.697 93.9906C106.647 93.3128 105.23 93.6183 104.552 94.6686C103.996 95.5298 102.821 95.7831 101.96 95.2273C101.099 94.6715 100.845 93.4965 101.401 92.6352C103.204 89.8414 106.937 89.0368 109.73 90.8397C112.524 92.6426 113.329 96.3752 111.526 99.169C109.981 101.564 107.443 101.622 106.508 101.643Z" fill="#97C8FF"/>
</svg>
