<svg width="23" height="27" viewBox="0 0 23 27" fill="none" xmlns="http://www.w3.org/2000/svg">
<g clip-path="url(#clip0_12_141)">
<path d="M18.7924 14.271C18.7924 12.046 20.0084 10.105 21.8124 9.07698C20.8704 7.92098 19.4534 6.88498 17.8914 6.58098C15.7614 6.16598 14.5464 6.85698 13.7604 7.13398C12.9744 7.41098 11.9304 7.65998 11.9304 7.65998C11.9304 7.65998 10.8874 7.41098 10.1004 7.13398C9.31539 6.85698 8.10039 6.16498 5.97039 6.57998C3.84039 6.99498 1.98039 8.77198 1.22439 10.356C-0.233613 13.413 0.366386 17.259 1.39639 20.025C2.42539 22.792 5.14639 26.658 7.25639 26.969C8.75739 27.19 9.68639 26.153 11.9304 25.89C14.1744 26.153 15.1034 27.19 16.6044 26.969C18.7144 26.658 21.4354 22.792 22.4644 20.025C22.4894 19.957 22.5154 19.887 22.5404 19.817C20.3434 18.935 18.7924 16.784 18.7924 14.271ZM11.3974 6.07498C11.3974 6.07498 13.4844 6.35198 15.3794 4.19998C17.2744 2.04798 16.7354 0.0119765 16.7354 0.0119765C16.7354 0.0119765 14.6484 -0.265023 12.7534 1.88698C10.8584 4.03898 11.3974 6.07498 11.3974 6.07498Z" fill="black"/>
</g>
<defs>
<clipPath id="clip0_12_141">
<rect width="22.185" height="27" fill="white" transform="translate(0.356384)"/>
</clipPath>
</defs>
</svg>
