<svg width="23" height="25" viewBox="0 0 23 25" fill="none" xmlns="http://www.w3.org/2000/svg">
<g clip-path="url(#clip0_12_143)">
<path d="M4.29238 1.11L17.4164 8.656L14.6034 11.469L4.29238 1.11ZM1.57338 0.5L13.6204 12.5L1.57438 24.5C0.961382 24.229 0.541382 23.626 0.541382 22.925C0.541382 22.902 0.541382 22.879 0.542382 22.857V22.86V2.141C0.541382 2.122 0.541382 2.099 0.541382 2.076C0.541382 1.375 0.961382 0.772 1.56338 0.505L1.57438 0.501L1.57338 0.5ZM21.4954 11.094C21.9094 11.401 22.1744 11.889 22.1744 12.438C22.1744 12.46 22.1744 12.481 22.1734 12.503V12.5C22.1774 12.543 22.1804 12.594 22.1804 12.645C22.1804 13.161 21.9304 13.619 21.5444 13.903L21.5404 13.906L18.7274 15.499L15.6814 12.5L18.7284 9.453L21.4954 11.094ZM4.29238 23.89L14.6044 13.531L17.4174 16.344L4.29238 23.89Z" fill="black"/>
</g>
<defs>
<clipPath id="clip0_12_143">
<rect width="22" height="24" fill="white" transform="translate(0.541382 0.5)"/>
</clipPath>
</defs>
</svg>
