<svg width="16" height="17" viewBox="0 0 16 17" fill="none" xmlns="http://www.w3.org/2000/svg">
<g clip-path="url(#clip0_103_440)">
<path d="M8 1.727C10.1375 1.727 10.3906 1.73638 11.2313 1.77388C12.0125 1.80825 12.4344 1.9395 12.7156 2.04888C13.0875 2.19263 13.3563 2.36763 13.6344 2.64575C13.9156 2.927 14.0875 3.19263 14.2313 3.5645C14.3406 3.84575 14.4719 4.27075 14.5063 5.04888C14.5438 5.89263 14.5531 6.14575 14.5531 8.28013C14.5531 10.4176 14.5438 10.6708 14.5063 11.5114C14.4719 12.2926 14.3406 12.7145 14.2313 12.9958C14.0875 13.3676 13.9125 13.6364 13.6344 13.9145C13.3531 14.1958 13.0875 14.3676 12.7156 14.5114C12.4344 14.6208 12.0094 14.752 11.2313 14.7864C10.3875 14.8239 10.1344 14.8333 8 14.8333C5.8625 14.8333 5.60938 14.8239 4.76875 14.7864C3.9875 14.752 3.56563 14.6208 3.28438 14.5114C2.9125 14.3676 2.64375 14.1926 2.36563 13.9145C2.08438 13.6333 1.9125 13.3676 1.76875 12.9958C1.65938 12.7145 1.52813 12.2895 1.49375 11.5114C1.45625 10.6676 1.44688 10.4145 1.44688 8.28013C1.44688 6.14263 1.45625 5.8895 1.49375 5.04888C1.52813 4.26763 1.65938 3.84575 1.76875 3.5645C1.9125 3.19263 2.0875 2.92388 2.36563 2.64575C2.64688 2.3645 2.9125 2.19263 3.28438 2.04888C3.56563 1.9395 3.99063 1.80825 4.76875 1.77388C5.60938 1.73638 5.8625 1.727 8 1.727ZM8 0.286377C5.82813 0.286377 5.55625 0.295752 4.70313 0.333252C3.85313 0.370752 3.26875 0.508252 2.7625 0.705127C2.23438 0.911377 1.7875 1.18325 1.34375 1.63013C0.896875 2.07388 0.625 2.52075 0.41875 3.04575C0.221875 3.55513 0.084375 4.13638 0.046875 4.98638C0.009375 5.84263 0 6.1145 0 8.28638C0 10.4583 0.009375 10.7301 0.046875 11.5833C0.084375 12.4333 0.221875 13.0176 0.41875 13.5239C0.625 14.052 0.896875 14.4989 1.34375 14.9426C1.7875 15.3864 2.23438 15.6614 2.75938 15.8645C3.26875 16.0614 3.85 16.1989 4.7 16.2364C5.55313 16.2739 5.825 16.2833 7.99688 16.2833C10.1688 16.2833 10.4406 16.2739 11.2938 16.2364C12.1438 16.1989 12.7281 16.0614 13.2344 15.8645C13.7594 15.6614 14.2063 15.3864 14.65 14.9426C15.0938 14.4989 15.3688 14.052 15.5719 13.527C15.7688 13.0176 15.9063 12.4364 15.9438 11.5864C15.9813 10.7333 15.9906 10.4614 15.9906 8.2895C15.9906 6.11763 15.9813 5.84575 15.9438 4.99263C15.9063 4.14263 15.7688 3.55825 15.5719 3.052C15.375 2.52075 15.1031 2.07388 14.6563 1.63013C14.2125 1.18638 13.7656 0.911377 13.2406 0.708252C12.7313 0.511377 12.15 0.373877 11.3 0.336377C10.4438 0.295752 10.1719 0.286377 8 0.286377Z" fill="#000100"/>
<path d="M8 4.177C5.73125 4.177 3.89062 6.01763 3.89062 8.28638C3.89062 10.5551 5.73125 12.3958 8 12.3958C10.2688 12.3958 12.1094 10.5551 12.1094 8.28638C12.1094 6.01763 10.2688 4.177 8 4.177ZM8 10.952C6.52813 10.952 5.33437 9.75825 5.33437 8.28638C5.33437 6.8145 6.52813 5.62075 8 5.62075C9.47188 5.62075 10.6656 6.8145 10.6656 8.28638C10.6656 9.75825 9.47188 10.952 8 10.952Z" fill="#000100"/>
<path d="M13.2312 4.01455C13.2312 4.5458 12.8 4.97393 12.2719 4.97393C11.7406 4.97393 11.3125 4.54268 11.3125 4.01455C11.3125 3.4833 11.7438 3.05518 12.2719 3.05518C12.8 3.05518 13.2312 3.48643 13.2312 4.01455Z" fill="#000100"/>
</g>
<defs>
<clipPath id="clip0_103_440">
<rect width="16" height="16" fill="white" transform="translate(0 0.286377)"/>
</clipPath>
</defs>
</svg>
