<svg width="16" height="17" viewBox="0 0 16 17" fill="none" xmlns="http://www.w3.org/2000/svg">
<g clip-path="url(#clip0_103_442)">
<path d="M14.8156 0.286377H1.18125C0.528125 0.286377 0 0.802002 0 1.4395V15.1301C0 15.7676 0.528125 16.2864 1.18125 16.2864H14.8156C15.4688 16.2864 16 15.7676 16 15.1333V1.4395C16 0.802002 15.4688 0.286377 14.8156 0.286377ZM4.74687 13.9208H2.37188V6.28325H4.74687V13.9208ZM3.55938 5.24263C2.79688 5.24263 2.18125 4.627 2.18125 3.86763C2.18125 3.10825 2.79688 2.49263 3.55938 2.49263C4.31875 2.49263 4.93437 3.10825 4.93437 3.86763C4.93437 4.62388 4.31875 5.24263 3.55938 5.24263ZM13.6344 13.9208H11.2625V10.2083C11.2625 9.32388 11.2469 8.18325 10.0281 8.18325C8.79375 8.18325 8.60625 9.14888 8.60625 10.1458V13.9208H6.2375V6.28325H8.5125V7.327H8.54375C8.85938 6.727 9.63438 6.09263 10.7875 6.09263C13.1906 6.09263 13.6344 7.67388 13.6344 9.73013V13.9208Z" fill="black"/>
</g>
<defs>
<clipPath id="clip0_103_442">
<rect width="16" height="16" fill="white" transform="translate(0 0.286377)"/>
</clipPath>
</defs>
</svg>
