<svg width="31" height="45" viewBox="0 0 31 45" fill="none" xmlns="http://www.w3.org/2000/svg">
<g clip-path="url(#clip0_0_18)">
<path fill-rule="evenodd" clip-rule="evenodd" d="M15.9175 27.1554C15.9175 27.6103 15.9175 27.8377 15.9175 28.2926C15.9175 30.7945 15.9175 33.5238 15.9175 36.0257C15.9175 38.3001 15.4627 40.5746 13.8709 42.1667C11.597 44.6686 8.1861 45.3509 5.0026 43.9862C2.27389 42.849 0.227356 40.1197 0.227356 37.1629V7.36775C0.227356 2.81887 4.32043 -0.137905 8.64089 -0.137905H21.6023C23.8762 -0.137905 26.1501 0.316983 27.7419 1.90909C29.3336 3.5012 30.2432 5.5482 30.2432 7.82264C30.2432 10.3245 29.1062 12.3715 27.0597 13.9636C26.6049 14.4185 26.1501 14.646 25.6954 14.8734C25.9227 14.8734 25.9227 15.1008 26.1501 15.1008C28.6515 16.4655 30.2432 19.1948 30.2432 22.1516C30.2432 26.473 26.8323 29.8847 22.5119 30.1122C19.7831 30.1122 17.5092 28.9749 15.9175 26.9279V27.1554Z" fill="white"/>
<path fill-rule="evenodd" clip-rule="evenodd" d="M27.5145 8.27752C27.5145 6.45797 26.6049 5.09331 25.6954 4.18353C24.7858 3.27376 23.194 2.81887 21.1475 2.81887H8.18611C4.77521 2.81887 2.27389 5.09331 2.27389 7.82264V13.5087H22.2845C23.194 13.5087 24.331 13.0538 25.0132 12.599C26.1501 11.6892 27.5213 10.2877 27.5213 8.46811L27.5145 8.27752Z" fill="#0066DA"/>
<path fill-rule="evenodd" clip-rule="evenodd" d="M27.7419 22.0776C27.7419 20.258 26.3775 18.5125 24.7858 17.6027C24.331 17.3753 23.4214 16.9204 22.9666 16.9204H17.0544V22.3791C17.0544 25.3358 19.5557 27.6103 22.5119 27.6103C25.468 27.6103 27.7419 25.1084 27.7419 22.3791V22.0776Z" fill="#00AC47"/>
<path fill-rule="evenodd" clip-rule="evenodd" d="M13.4161 35.0822C13.4161 32.8077 13.4161 22.6065 12.9614 21.0144C12.5066 19.6497 11.8244 18.5125 10.6874 17.8302C10.2326 17.6027 9.32307 17.1478 8.64089 17.1478H2.72868V37.1629C2.72868 41.0295 8.1861 44.2137 12.0518 40.3471C12.9614 39.4374 13.4161 37.8453 13.4161 35.7983V35.0822Z" fill="#0066DA"/>
</g>
<defs>
<clipPath id="clip0_0_18">
<rect width="30.2432" height="44.76" fill="white"/>
</clipPath>
</defs>
</svg>
