<svg width="23" height="25" viewBox="0 0 23 25" fill="none" xmlns="http://www.w3.org/2000/svg">
<path d="M4.34353 1.11L17.4675 8.656L14.6545 11.469L4.34353 1.11ZM1.62453 0.5L13.6715 12.5L1.62553 24.5C1.01253 24.229 0.592529 23.626 0.592529 22.925C0.592529 22.902 0.592529 22.879 0.593529 22.857V22.86V2.141C0.592529 2.122 0.592529 2.099 0.592529 2.076C0.592529 1.375 1.01253 0.772 1.61453 0.505L1.62553 0.501L1.62453 0.5ZM21.5465 11.094C21.9605 11.401 22.2255 11.889 22.2255 12.438C22.2255 12.46 22.2255 12.481 22.2245 12.503V12.5C22.2285 12.543 22.2315 12.594 22.2315 12.645C22.2315 13.161 21.9815 13.619 21.5955 13.903L21.5915 13.906L18.7785 15.499L15.7325 12.5L18.7795 9.453L21.5465 11.094ZM4.34353 23.89L14.6555 13.531L17.4685 16.344L4.34353 23.89Z" fill="#969696"/>
</svg>
