<svg width="32" height="32" viewBox="0 0 32 32" fill="none" xmlns="http://www.w3.org/2000/svg">
<path d="M14.3612 2.34244C15.1574 1.20442 16.8426 1.20442 17.6388 2.34244L19.0272 4.32697C19.5095 5.01639 20.3717 5.33022 21.1843 5.11212L23.5235 4.48432C24.8649 4.12431 26.1559 5.20755 26.0343 6.59108L25.8222 9.00375C25.7485 9.84192 26.2073 10.6366 26.97 10.9918L29.1655 12.0145C30.4245 12.601 30.7171 14.2606 29.7346 15.2423L28.0214 16.9542C27.4262 17.5489 27.2668 18.4525 27.6227 19.2149L28.6472 21.4096C29.2347 22.6681 28.392 24.1275 27.0084 24.248L24.5956 24.4581C23.7573 24.5311 23.0544 25.1209 22.837 25.9337L22.2111 28.2734C21.8522 29.6151 20.2686 30.1915 19.1312 29.3944L17.1478 28.0044C16.4588 27.5215 15.5412 27.5215 14.8522 28.0044L12.8688 29.3944C11.7314 30.1915 10.1478 29.6151 9.7889 28.2734L9.163 25.9337C8.94556 25.1209 8.24266 24.5311 7.40443 24.4581L4.99159 24.248C3.60796 24.1275 2.76534 22.6681 3.35282 21.4096L4.37728 19.2149C4.73318 18.4525 4.57385 17.5489 3.97865 16.9542L2.26536 15.2423C1.28288 14.2606 1.57551 12.601 2.8345 12.0145L5.02997 10.9918C5.79267 10.6366 6.25146 9.84192 6.17779 9.00375L5.96572 6.59108C5.8441 5.20755 7.13506 4.12431 8.47646 4.48432L10.8157 5.11212C11.6283 5.33022 12.4905 5.01639 12.9728 4.32697L14.3612 2.34244Z" fill="#FFCD04"/>
<path d="M21.4553 12.3674L18.1304 9.99295C17.7852 9.74922 17.1603 9.58177 16.7395 9.62025L12.6729 10.0142C11.8886 10.0921 11.0875 10.7705 10.884 11.5298L9.42563 16.9726C9.2798 17.5169 9.44328 18.3313 9.79362 18.7708L12.7493 22.5228C13.2697 23.188 14.3381 23.4743 15.1213 23.1584L19.557 21.3869C20.082 21.1747 20.629 20.5579 20.7748 20.0136L22.2332 14.5708C22.4434 13.8133 22.0888 12.8253 21.4553 12.3674ZM18.3908 15.5794L14.7272 17.6946C14.5994 17.7684 14.4592 17.7812 14.3315 17.747C14.2038 17.7128 14.0888 17.6315 14.015 17.5037L13.2315 16.1271C13.0889 15.88 13.1753 15.5575 13.4224 15.4148C13.6695 15.2722 13.992 15.3586 14.1347 15.6057L14.6659 16.5258L17.8779 14.6714C18.125 14.5287 18.4476 14.6151 18.5902 14.8622C18.7329 15.1093 18.6446 15.4385 18.3908 15.5794Z" fill="#9B7C00"/>
</svg>
