<svg width="23" height="27" viewBox="0 0 23 27" fill="none" xmlns="http://www.w3.org/2000/svg">
<g clip-path="url(#clip0_103_137)">
<path d="M18.8435 14.2711C18.8435 12.0461 20.0595 10.1051 21.8635 9.0771C20.9215 7.9211 19.5045 6.8851 17.9425 6.5811C15.8125 6.1661 14.5975 6.8571 13.8115 7.1341C13.0255 7.4111 11.9815 7.6601 11.9815 7.6601C11.9815 7.6601 10.9385 7.4111 10.1515 7.1341C9.36649 6.8571 8.15149 6.1651 6.02149 6.5801C3.89149 6.9951 2.03149 8.7721 1.27549 10.3561C-0.182512 13.4131 0.417488 17.2591 1.44749 20.0251C2.47649 22.7921 5.19749 26.6581 7.30749 26.9691C8.80849 27.1901 9.73749 26.1531 11.9815 25.8901C14.2255 26.1531 15.1545 27.1901 16.6555 26.9691C18.7655 26.6581 21.4865 22.7921 22.5155 20.0251C22.5405 19.9571 22.5665 19.8871 22.5915 19.8171C20.3945 18.9351 18.8435 16.7841 18.8435 14.2711ZM11.4485 6.0751C11.4485 6.0751 13.5355 6.3521 15.4305 4.2001C17.3255 2.0481 16.7865 0.0120986 16.7865 0.0120986C16.7865 0.0120986 14.6995 -0.264901 12.8045 1.8871C10.9095 4.0391 11.4485 6.0751 11.4485 6.0751Z" fill="#969696"/>
</g>
<defs>
<clipPath id="clip0_103_137">
<rect width="22.185" height="27" fill="white" transform="translate(0.407471)"/>
</clipPath>
</defs>
</svg>
