<svg width="47" height="46" viewBox="0 0 47 46" fill="none" xmlns="http://www.w3.org/2000/svg">
<path d="M21.8612 2.34244C22.6574 1.20442 24.3426 1.20442 25.1388 2.34244L28.2031 6.72248C28.6854 7.4119 29.5476 7.72573 30.3602 7.50763L35.5231 6.12201C36.8645 5.76199 38.1554 6.84523 38.0338 8.22877L37.5657 13.5538C37.4921 14.3919 37.9509 15.1866 38.7136 15.5418L43.5592 17.799C44.8181 18.3854 45.1108 20.045 44.1283 21.0267L40.3469 24.805C39.7517 25.3998 39.5924 26.3034 39.9483 27.0658L42.2094 31.9096C42.7968 33.1681 41.9542 34.6275 40.5706 34.748L35.2452 35.2117C34.407 35.2847 33.7041 35.8745 33.4867 36.6873L32.1052 41.8513C31.7463 43.193 30.1627 43.7693 29.0254 42.9723L24.6478 39.9044C23.9588 39.4215 23.0412 39.4215 22.3522 39.9044L17.9746 42.9723C16.8373 43.7693 15.2537 43.193 14.8948 41.8513L13.5133 36.6873C13.2959 35.8745 12.593 35.2847 11.7548 35.2117L6.42941 34.748C5.04578 34.6275 4.20317 33.1681 4.79064 31.9096L7.05172 27.0658C7.40762 26.3034 7.24829 25.3998 6.65309 24.805L2.8717 21.0267C1.88922 20.045 2.18186 18.3854 3.44084 17.799L8.28645 15.5418C9.04915 15.1866 9.50794 14.3919 9.43426 13.5538L8.9662 8.22877C8.84459 6.84523 10.1355 5.76199 11.4769 6.12201L16.6398 7.50763C17.4524 7.72573 18.3146 7.4119 18.797 6.72247L21.8612 2.34244Z" fill="#00AC47"/>
<path d="M31.3419 17.7782L26.5625 14.3649C26.0663 14.0145 25.168 13.7738 24.5631 13.8292L18.7173 14.3955C17.5899 14.5075 16.4383 15.4827 16.1458 16.5741L14.0494 24.3981C13.8397 25.1805 14.0747 26.3513 14.5783 26.9831L18.8272 32.3766C19.5752 33.3328 21.111 33.7443 22.2369 33.2902L28.6132 30.7438C29.3679 30.4387 30.1542 29.552 30.3638 28.7696L32.4603 20.9456C32.7624 19.8567 32.2526 18.4364 31.3419 17.7782ZM26.9368 22.3954L21.6704 25.436C21.4867 25.5421 21.2851 25.5605 21.1015 25.5113C20.918 25.4621 20.7526 25.3454 20.6465 25.1616L19.5203 23.1827C19.3153 22.8276 19.4395 22.3639 19.7947 22.1588C20.1499 21.9538 20.6135 22.078 20.8186 22.4332L21.5822 23.7559L26.1995 21.0901C26.5547 20.8851 27.0184 21.0093 27.2234 21.3645C27.4285 21.7197 27.3017 22.193 26.9368 22.3954Z" fill="#8DFFBC"/>
</svg>
